<svg xmlns="http://www.w3.org/2000/svg" viewBox="0 0 104.91 120.04"><defs><style>.cls-1{fill:#3f3b3a;}</style></defs><g id="图层_2" data-name="图层 2"><g id="图层_1-2" data-name="图层 1"><path class="cls-1" d="M12.22,15.11,33.36,2.83C41-1.6,51.52-1,63.16,5.75L42,18C30.38,11.31,19.83,10.69,12.22,15.11Z"/><path class="cls-1" d="M42,34.08C57.39,43,69.85,64.57,69.8,82.28s-12.59,24.86-28,16S13.92,67.76,14,50,26.56,25.18,42,34.08Z"/><path class="cls-1" d="M92.69,104.93,71.55,117.21c7.52-4.37,12.18-13.66,12.22-26.87C83.84,63.76,65.15,31.39,42,18L63.16,5.75C86.3,19.1,105,51.47,104.91,78.05,104.87,91.26,100.21,100.56,92.69,104.93Z"/><path class="cls-1" d="M42,18C65.15,31.39,83.84,63.76,83.77,90.34s-18.89,37.31-42,24S-.08,68.57,0,42,18.89,4.68,42,18Zm-.23,80.21c15.42,8.9,28,1.76,28-16S57.39,43,42,34.08,14,32.33,14,50s12.4,39.3,27.82,48.2"/></g></g></svg>